<?xml version="1.0" encoding="UTF-8"?><svg id="a" xmlns="http://www.w3.org/2000/svg" viewBox="0 0 999.82 1305.98"><defs><style>.g{fill:#e7c3a1;}.h{fill:#ff802f;}.i{fill:#c4574e;}.j,.k{fill:#cdaa86;}.l{fill:#c49a6d;}.m{fill:#b2261b;}.n{fill:#241f20;}.o{fill:#384783;}.p{fill:#754c24;}.k{isolation:isolate;opacity:.63;}</style></defs><path class="o" d="M421,751.63h0c30.9,0,56,25.1,56,56v225.6c0,30.9-25.1,56-56,56h0c-30.9,0-56-25.1-56-56v-225.6c0-31,25.1-56,56-56Z"/><path class="n" d="M682.6,844.63c-.5-16.4-17.6-26.9-32.5-20.2l-102.8,46c-15,6.7-18.5,26.4-6.6,37.8,23.9,22.8,60.2,30.2,92.3,15.9,32.1-14.5,50.7-46.5,49.6-79.5h0Z"/><path class="o" d="M577.6,906.43h0c18.9,21.9,16.4,54.9-5.5,73.8l-111.9,96.3c-21.9,18.9-54.9,16.4-73.8-5.5h0c-18.9-21.9-16.4-54.9,5.5-73.8l111.9-96.3c21.9-18.9,54.9-16.4,73.8,5.5Z"/><g id="b"><g id="c"><g id="d"><g><g id="e"><rect class="o" x="365" y="719.03" width="236" height="109"/><path class="h" d="M392.6,447.23l-49.6,159.3c-3.8,12.1-5.7,25.2-5.7,38.4v81.5c0,.1,304.7,.3,304.7,0v-86.8c0-13.2-2-26.3-5.7-38.4l-48-154.1c-1.2-3.8-2.1-7.8-2.6-11.7-4.6-33.6-20.9-62.1-44.2-74.1-16.2-8.4-33.6-13-51.8-13h0c-17,0-33.3,4-48.6,11.4-24.1,11.7-41.1,40.7-45.7,75.4-.7,4.1-1.6,8.1-2.8,12.1h0Z"/><path class="h" d="M651.6,406.73h0c-3.4,18.4-21.1,30.6-39.5,27.3l-92.7-16.9c-18.4-3.4-30.7-21-27.3-39.5h0c3.4-18.4,21.1-30.6,39.5-27.3l92.7,16.9c18.4,3.3,30.6,21,27.3,39.5Z"/><path class="h" d="M493.5,377.53h0c3.4,18.4-8.8,36.1-27.3,39.5l-92.7,16.9c-18.4,3.4-36.1-8.8-39.5-27.3h0c-3.4-18.4,8.8-36.1,27.3-39.5l92.7-16.9c18.4-3.3,36.1,8.9,39.5,27.3Z"/><path class="h" d="M352.2,367.73h12.6c21.6,0,39.2,17.5,39.2,39.2v45.9c0,21.6-17.5,39.2-39.2,39.2h-12.6c-21.6,0-39.2-17.5-39.2-39.2v-45.9c0-21.6,17.6-39.2,39.2-39.2Z"/><path class="h" d="M619.8,501.03h-8c-21.6,0-39.2-17.5-39.2-39.2v-55.2c0-21.6,17.5-39.2,39.2-39.2h8c21.6,0,39.2,17.5,39.2,39.2v55.2c0,21.7-17.6,39.2-39.2,39.2Z"/><path class="p" d="M586.4,140.13h0c8.5-.1,15.4,6.6,15.6,15.1l.4,22.8c.1,8.5-6.6,15.4-15.1,15.6h0c-8.5,.1-15.4-6.6-15.6-15.1l-.4-22.8c-.1-8.5,6.6-15.4,15.1-15.6Z"/><path id="f" class="p" d="M404.5,111.13h0c12.6-.2,23,9.8,23.2,22.4l.5,31.3c.2,12.6-9.8,23-22.4,23.2h0c-12.6,.2-23-9.8-23.2-22.4l-.5-31.3c-.2-12.6,9.8-23,22.4-23.2Z"/><path class="l" d="M493.4,269.93h0c27.5-.5,50.2,21.5,50.7,49l.5,29.9c.5,27.5-21.5,50.2-49,50.7h0c-27.5,.5-50.2-21.5-50.7-49l-.5-29.9c-.5-27.5,21.5-50.2,49-50.7Z"/><path class="g" d="M604.2,200.43c2.4-10.8-.2-20.6-6-21.9-3.5-.8-7.4,1.8-10.5,6.4v-.4c6.1-58.4-18.4-118.6-95.4-125.3-62.9-5.5-83.6,62.2-87.6,121.1-2.7-4.2-6.1-6.6-9.5-6-5.8,1-9.1,10.6-7.3,21.5,1.2,7,4.1,12.8,7.6,15.8-2.9,2.5-4.8,6.8-4.7,11.6,.1,7.7,5.1,13.8,11.1,13.7,1.3,0,2.5-.3,3.6-.9,6,55.2,29.6,104.1,97.9,101.4,54.8-2.2,71.2-50.7,78.5-99.5,1.6,1.6,3.6,2.6,5.8,2.8,6,.4,11.3-5.4,11.9-13,.4-4.8-1.2-9.2-4-11.9,3.7-2.8,7-8.5,8.6-15.4h0Zm-19.3,13.6s0,.1,0,0v0h0Z"/><path class="k" d="M510.9,236.93c-1.1,0-2.2,.2-3.2,.6,.1-2.5-.4-5.6-.4-9.4,0-10.9-.7-30.1-12.1-29.8-11.3,.3-11.5,19.2-11.2,30.8,.1,3.8,0,6.8,.3,9.2-1.2-.6-2.6-.9-4.1-.8-5.3,.1-9.5,4.5-9.5,9.8s4.5,9.6,9.8,9.5c2.4,0,4.6-1,6.3-2.5,2.3,2.8,5.7,4.5,9.4,4.4,3.5-.1,6.7-1.7,9-4.4,1.7,1.3,3.7,2,6,2,5.3-.1,9.5-4.5,9.5-9.8s-4.5-9.7-9.8-9.6h0Z"/><path class="j" d="M591.1,190.43l-4.7,22.7-4.7,22.7c2.3,.5,6.3-9.3,8.9-21.8s2.8-23.1,.5-23.6h0Z"/><path class="j" d="M406.1,235.03l-3.5-22.9-3.5-22.9c-2.3,.4-2.7,10.9-.7,23.6,1.8,12.6,5.3,22.6,7.7,22.2h0Z"/><path class="p" d="M407.5,77.53h0c9.8-.2,18,7.7,18.1,17.5l.3,17.8c.2,9.8-7.7,17.9-17.5,18.1h0c-9.8,.2-17.9-7.7-18.1-17.5l-.3-17.8c-.2-9.8,7.7-17.9,17.5-18.1Z"/><path class="p" d="M425.2,59.53h0c5.3-.1,9.7,4.1,9.8,9.5l.3,16.4c.1,5.3-4.1,9.7-9.5,9.8h0c-5.3,.1-9.7-4.1-9.8-9.5l-.3-16.4c0-5.3,4.2-9.7,9.5-9.8Z"/><path class="p" d="M565.8,72.13h0c11.8-4.3,24.9,1.9,29.2,13.7l10.7,29.5c4.3,11.8-1.9,24.9-13.7,29.2h0c-11.8,4.3-24.9-1.9-29.2-13.7l-10.7-29.5c-4.2-11.9,1.9-24.9,13.7-29.2Z"/><path class="p" d="M567.5,129.73c-1.7-.1-2.1,.3-4-1.4-43.5-39.9-66.7-46.7-123.5-56.9-5.7-1-5.5-4-4.9-7.3,.6-3.4,1-5.6,6.8-4.6,58.5,9.8,85.7,18.2,129.7,59.9,4.4,4.1,2.2,5,.8,8.3-.8,1.9-3.2,2.2-4.9,2h0Z"/><path class="p" d="M572.4,108.53c.1,.2,.1,.5,.2,.8,.8,3.6-.4,6.7-2.7,7l-6.7,.8c-52.1,6-53.1,5.6-108.8-40.8l-2.3-1.9c-2.3-1.9-3.6-6-2.9-9s3.2-3.9,5.5-2l2.3,1.9c35.7,29.5,70.1,42.5,103.3,38.6l6.7-.8c2.1-.2,4.4,2.2,5.4,5.4h0Z"/><path class="p" d="M577.6,82.23c.1-.1,.2-.2,.3-.2,1.2-1.3,1.3-3.1,.2-4.2l-3.3-3c-26-23.8-26.6-24-66.2-25.8l-1.8-.2c-1.7-.1-3.2,1.2-3.6,2.8-.3,1.6,.8,3,2.5,3.1l1.6,.1c25.3,1.1,46.3,9.3,62.9,24.4l3.3,3c1.1,1.1,2.8,1,4.1,0h0Z"/><path class="p" d="M408.2,114.93c-.3,0-.7-.1-1-.1-4.9-.8-8.3-2.6-7.5-4.2l2.2-4.6c17-35.8,17.9-36.3,102.5-55.7l3.5-.8c3.5-.8,9.2-.2,12.7,1.3s3.4,3.5-.1,4.3l-3.5,.8c-54,12.4-86.5,30-97.3,52.8l-2.2,4.6c-.8,1.5-4.8,2.1-9.3,1.6h0Z"/><path d="M469.5,201.43c-.9,0-1.7-.5-1.9-1.2-1.8-6-5.9-9.6-10.7-9.5h-.3c-4.1,.2-8.8,3.3-10,9.8-.2,.9-1.2,1.5-2.3,1.4-1.1-.1-1.8-1-1.6-1.9,1.3-7.2,6.9-12.2,13.8-12.6,5.4-.2,12.2,2.8,15,12,.3,.9-.4,1.8-1.4,2h-.6Z"/><path d="M545.5,200.43c-.9,0-1.7-.5-1.9-1.2-1.8-6-5.9-9.6-10.7-9.5h-.3c-4.1,.2-8.8,3.3-10,9.8-.2,.9-1.2,1.5-2.3,1.4-1.1-.1-1.8-1-1.6-1.9,1.3-7.2,6.9-12.2,13.8-12.6,5.4-.2,12.2,2.8,15,12,.3,.9-.4,1.8-1.4,2h-.6Z"/><ellipse class="g" cx="914.54" cy="279.59" rx="54" ry="35.3" transform="translate(-27.57 443.86) rotate(-26.89)"/><ellipse class="g" cx="884.49" cy="260.84" rx="34.5" ry="15.8" transform="translate(378.76 1031.94) rotate(-73.17)"/><path class="p" d="M567.5,113.63c-1.7-.2-1.5,.4-3.1-1.3-37.6-40.2-43.7-38.9-91.3-37.4-4.7,.1-4.2-2.9-4.9-6.3s.5-5.2,3.9-5.1c62-2.4,40.8-7,97.7,39.8,2.5,3,2.3,4.8,1.1,8.2-.7,1.9-1.7,2.3-3.4,2.1h0Z"/><path class="p" d="M560.6,82.13c-1.1,.2-1.2,.8-3.1-.8-43.4-35.9-55.5-4.4-96.2-4.1-4,0-5-3.3-6-7.2s-1.5-6.5,2.7-6.6c33.4-2.3,32-35.6,101.3,6.2,4.4,3.8,3.3,5.1,3.7,9.1,.1,2.4-1.3,3.2-2.4,3.4Z"/><path class="g" d="M611.9,444.83l-7.6-14c-6.7-12.4-1.3-27.8,12.1-34.3l230.2-112.1c13.4-6.5,29.7-1.8,36.5,10.6l7.6,14c6.7,12.4,1.3,27.8-12.1,34.3l-230.3,112.2c-13.4,6.5-29.7,1.8-36.4-10.7Z"/><path class="o" d="M545,765.03h0c30.9,0,56,25.1,56,56v225.6c0,30.9-25.1,56-56,56h0c-30.9,0-56-25.1-56-56v-225.6c0-30.9,25.1-56,56-56Z"/><path class="n" d="M801.9,851.13c-2.3-16.2-20.4-24.9-34.5-16.7l-97.3,56.7c-14.2,8.2-15.5,28.3-2.5,38.2,26.2,20.2,63.1,23.7,93.4,6,30.3-17.6,45.5-51.4,40.9-84.2h0Z"/><ellipse class="g" cx="80.63" cy="259.78" rx="34.4" ry="54.5" transform="translate(-184.56 199.26) rotate(-59.9)"/><ellipse class="g" cx="112.91" cy="245.24" rx="16.1" ry="33.5" transform="translate(-48.3 28.67) rotate(-11.94)"/><path class="g" d="M370.2,452.03l9.2-12.6c8.1-11.2,4.3-26.5-8.6-34.3l-221.9-133.1c-12.9-7.8-30-5-38.2,6.2l-9.1,12.6c-8.2,11.2-4.3,26.5,8.6,34.3l221.8,133.1c13,7.7,30.1,4.9,38.2-6.2h0Z"/><path class="m" d="M527.2,274.03h-62.4c0,17.2,14,31.2,31.2,31.2s31.2-14,31.2-31.2h0Z"/></g><path class="i" d="M473.8,293.73s24.4-15.3,48.3,0c0,0-23.4,25.7-48.3,0Z"/></g></g></g></g><path class="o" d="M701.6,919.93h0c18.9,21.9,16.4,54.9-5.5,73.8l-111.9,96.3c-21.9,18.9-54.9,16.4-73.8-5.5h0c-18.9-21.9-16.4-54.9,5.5-73.8l111.9-96.3c21.9-18.9,54.9-16.4,73.8,5.5Z"/></svg>