<?xml version="1.0" encoding="UTF-8"?><svg id="a" xmlns="http://www.w3.org/2000/svg" viewBox="0 0 999.82 1305.98"><defs><style>.i{fill:#e7c3a1;}.j{fill:#ff802f;}.k{fill:#041201;}.l,.m{fill:#cdaa86;}.n{fill:#c49a6d;}.o{fill:#241f20;}.p{fill:#384783;}.q{fill:#2675b3;}.r{fill:#754c24;}.m{isolation:isolate;opacity:.63;}</style></defs><g id="b"><g id="c"><g id="d"><g><g id="e"><g id="f"><g><path class="j" d="M584.01,445.82l49.37,158.14c3.76,12.04,5.7,25.01,5.7,38.12v80.97c0,.06-303.01,.35-303.01,0v-86.14c0-13.11,1.94-26.07,5.7-38.12l47.77-153.01c1.19-3.81,2.05-7.71,2.59-11.65,4.6-33.39,20.83-61.62,43.92-73.61,16.1-8.36,33.46-12.94,51.53-12.93h0c16.89,0,33.16,3.99,48.36,11.35,23.95,11.59,40.89,40.45,45.44,74.84,.54,4.06,1.41,8.09,2.65,12.03h0Z"/><path class="j" d="M483.97,371.81h0c3.35,18.3-8.8,35.86-27.14,39.2l-92.2,16.83c-18.34,3.35-35.92-8.78-39.27-27.08h0c-3.35-18.3,8.8-35.86,27.14-39.2l92.2-16.83c18.34-3.35,35.92,8.78,39.27,27.08Z"/><path class="j" d="M641.21,400.78h0c-3.35,18.3-20.94,30.43-39.27,27.08l-92.2-16.83c-18.34-3.35-30.49-20.9-27.14-39.2h0c3.35-18.3,20.94-30.43,39.27-27.08l92.2,16.83c18.34,3.35,30.49,20.9,27.14,39.2Z"/><path class="j" d="M690.94,589.53h0c-19.67,8.73-42.69-.11-51.43-19.75l-64.95-145.91c-8.74-19.63,.12-42.62,19.78-51.34h0c19.67-8.73,42.69,.11,51.43,19.75l64.95,145.91c8.74,19.63-.12,42.62-19.78,51.34Z"/><path class="n" d="M480.5,393.73h0c-27.39-.46-49.22-22.99-48.76-50.34l.5-29.72c.46-27.34,23.03-49.13,50.42-48.68h0c27.39,.46,49.22,22.99,48.76,50.34l-.5,29.72c-.46,27.34-23.03,49.13-50.42,48.68Z"/><g><ellipse class="i" cx="230.79" cy="761.84" rx="42.09" ry="29.05" transform="translate(-563.58 813.24) rotate(-76.85)"/><ellipse class="i" cx="258.27" cy="755.71" rx="12.4" ry="28.31" transform="translate(-361 251.43) rotate(-31.98)"/><path class="j" d="M381.07,375.63l-7.15-3.17c-19.66-8.72-42.69,.12-51.43,19.75l-64.99,145.89c-4.75,10.67-4.3,22.33,.25,32.15,4.64-14.01,19.15-22.03,33.46-17.85l.49,.11c14.64,4.28,23.03,19.59,18.75,34.19l-2.5,8.51c11.94-2.41,22.58-10.36,27.91-22.32l64.99-145.89c8.75-19.64-.11-42.63-19.78-51.36h0Z"/></g></g></g><g><path class="r" d="M572.4,134.35h0c8.41-.14,15.35,6.55,15.49,14.95l.38,22.63c.14,8.4-6.57,15.32-14.98,15.46h0c-8.41,.14-15.35-6.55-15.49-14.95l-.38-22.63c-.14-8.4,6.57-15.32,14.98-15.46Z"/><path id="g" class="r" d="M391.55,105.53h0c12.52-.21,22.84,9.75,23.05,22.25l.52,31.12c.21,12.5-9.77,22.8-22.29,23.01h0c-12.52,.21-22.84-9.75-23.05-22.25l-.52-31.12c-.21-12.5,9.77-22.8,22.29-23.01Z"/><path class="i" d="M590.12,194.22c2.43-10.7-.25-20.44-5.98-21.73-3.53-.79-7.39,1.79-10.4,6.39,0-.13,.03-.26,.04-.39,6.03-58.09-18.37-117.84-94.96-124.47-62.51-5.42-83.19,61.78-87.16,120.24-2.67-4.15-6.1-6.52-9.4-5.98-5.8,.96-9.03,10.52-7.23,21.35,1.15,6.95,4.11,12.73,7.61,15.73-2.88,2.51-4.74,6.76-4.66,11.57,.13,7.61,5.06,13.68,11.03,13.58,1.27-.02,2.49-.34,3.62-.87,6.02,54.82,29.49,103.38,97.36,100.65,54.52-2.19,70.86-50.36,78.02-98.82,1.6,1.58,3.58,2.58,5.79,2.75,5.95,.45,11.23-5.33,11.81-12.92,.36-4.79-1.24-9.14-3.98-11.81,3.67-2.79,6.95-8.39,8.51-15.26h0Zm-19.21,13.53s.03,.05,.05,.08l-.06,.03v-.11h0Z"/><path class="m" d="M497.33,230.46c-1.12,.02-2.2,.24-3.2,.62,.06-2.47-.35-5.58-.36-9.33-.02-10.78-.74-29.92-12-29.61-11.28,.31-11.4,19.02-11.13,30.54,.09,3.73-.02,6.76,.27,9.13-1.23-.55-2.61-.85-4.05-.83-5.28,.09-9.5,4.44-9.41,9.71s4.45,9.48,9.73,9.39c2.43-.04,4.62-.99,6.29-2.51,2.32,2.73,5.65,4.43,9.34,4.37,3.53-.06,6.68-1.72,8.9-4.33,1.65,1.25,3.71,1.99,5.95,1.96,5.28-.09,9.5-4.44,9.41-9.71s-4.45-9.48-9.73-9.39h0Z"/><path class="l" d="M577.09,184.32l-4.69,22.53-4.7,22.56c2.31,.48,6.28-9.22,8.87-21.67,2.6-12.45,2.83-22.93,.53-23.41h0Z"/><path class="l" d="M388.1,228.57l-3.5-22.75-3.51-22.78c-2.33,.36-2.65,10.83-.71,23.4,1.94,12.57,5.39,22.47,7.72,22.11h0Z"/><path class="r" d="M394.53,72.23h0c9.78-.16,17.84,7.62,18.01,17.38l.3,17.69c.16,9.76-7.63,17.81-17.41,17.98h0c-9.78,.16-17.84-7.62-18.01-17.38l-.3-17.69c-.16-9.76,7.63-17.81,17.41-17.98Z"/><path class="r" d="M412.16,54.31h0c5.28-.09,9.64,4.12,9.73,9.39l.27,16.27c.09,5.27-4.12,9.62-9.41,9.71h0c-5.28,.09-9.64-4.12-9.73-9.39l-.27-16.27c-.09-5.27,4.12-9.62,9.41-9.71Z"/><path class="r" d="M551.99,66.8h0c11.78-4.25,24.78,1.84,29.03,13.6l10.6,29.27c4.26,11.76-1.84,24.73-13.62,28.98h0c-11.78,4.25-24.78-1.84-29.03-13.6l-10.6-29.27c-4.26-11.76,1.84-24.73,13.62-28.98Z"/><path class="r" d="M553.67,124.06c-1.67-.11-2.12,.32-3.97-1.39-43.25-39.63-66.33-46.4-122.88-56.47-5.63-1-5.44-3.94-4.88-7.28,.56-3.33,1.01-5.53,6.79-4.57,58.15,9.77,85.19,18.12,128.96,59.47,4.36,4.11,2.18,4.92,.79,8.22-.79,1.87-3.14,2.12-4.81,2.02Z"/><path class="r" d="M558.55,102.92c.07,.24,.14,.49,.2,.74,.82,3.56-.37,6.66-2.66,6.92l-6.61,.75c-51.82,5.94-52.83,5.56-108.24-40.51l-2.31-1.92c-2.32-1.93-3.62-5.93-2.9-8.94,.72-3.01,3.17-3.88,5.49-1.96l2.31,1.92c35.42,29.45,69.65,42.29,102.69,38.5l6.61-.75c2.12-.24,4.45,2.06,5.42,5.24h0Z"/><path class="r" d="M563.66,76.82c.09-.08,.18-.16,.27-.25,1.23-1.26,1.3-3.13,.17-4.17l-3.29-3.01c-25.84-23.59-26.45-23.83-65.87-25.6l-1.64-.07c-1.65-.07-3.23,1.19-3.54,2.82-.31,1.64,.79,3.02,2.44,3.09l1.64,.07c25.2,1.13,46.04,9.22,62.51,24.26l3.3,3.01c1.05,.96,2.79,.87,4.02-.16h0Z"/><path class="r" d="M395.23,109.34c-.34-.04-.69-.09-1.02-.14-4.87-.74-8.22-2.62-7.46-4.18l2.16-4.53c16.89-35.52,17.83-36.04,101.91-55.29l3.5-.8c3.52-.8,9.16-.22,12.62,1.32,3.45,1.53,3.4,3.43-.12,4.24l-3.51,.8c-53.75,12.3-86,29.78-96.77,52.43l-2.16,4.54c-.7,1.45-4.68,2.12-9.15,1.62h0Z"/><path d="M456.14,195.21c-.89,.02-1.7-.48-1.93-1.22-1.83-5.93-5.9-9.52-10.66-9.44h-.27c-4.1,.19-8.77,3.25-9.98,9.68-.17,.89-1.17,1.51-2.25,1.38-1.07-.13-1.81-.96-1.64-1.86,1.33-7.15,6.83-12.15,13.68-12.46,5.37-.22,12.12,2.75,14.93,11.87,.27,.87-.37,1.77-1.42,2-.15,.03-.31,.05-.46,.05h0Z"/><path d="M531.76,194.2c-.89,.02-1.7-.48-1.93-1.22-1.83-5.93-5.9-9.52-10.66-9.44h-.27c-4.1,.19-8.77,3.25-9.98,9.68-.17,.89-1.17,1.51-2.25,1.38-1.07-.13-1.81-.96-1.64-1.86,1.33-7.15,6.83-12.15,13.68-12.46,5.37-.22,12.12,2.75,14.93,11.87,.27,.87-.37,1.77-1.42,2-.15,.03-.31,.05-.46,.05h0Z"/><path class="r" d="M553.65,108.02c-1.65-.16-1.44,.41-3.04-1.3-37.42-39.89-43.5-38.58-90.81-37.17-4.7,.14-4.2-2.87-4.9-6.23s.52-5.18,3.89-5.05c61.7-2.36,40.6-6.93,97.14,39.5,2.51,3,2.29,4.79,1.11,8.14-.67,1.91-1.73,2.28-3.38,2.13v-.02Z"/><path class="r" d="M546.76,76.78c-1.12,.22-1.24,.78-3.1-.74-43.11-35.64-55.25-4.32-95.65-4.03-4.02,.03-5.02-3.32-5.94-7.17-.92-3.85-1.46-6.42,2.65-6.52,33.23-2.27,31.8-35.34,100.74,6.16,4.39,3.72,3.29,5.08,3.65,9.06,.21,2.26-1.22,3.03-2.35,3.25h0Z"/><path d="M513.49,273.24c-6.76,.77-21.29,2.74-25.47,5.78-.18,.13-4.27,1.85-4.47,1.81-2.3-.5-12.89-5.23-22.96-5.47l-7.02-.17c-.89-.02-.99,1.12-.36,1.86,5.48,6.24,24.86,16.32,35.71,13.18,3.68-.76,18.61-5.38,25.01-15.18,.54-.81,.39-1.9-.48-1.8h.03Z"/><path class="m" d="M466.78,270.47c-28.48-6.79-23.61,7.67,.59,21.04,18.22,10.07,32.31,1.28,40.17-3.79,20.21-13.05,6-26.05-19.23-12.2-8.22,4.52-14.4-3.34-21.52-5.03h0Z"/></g></g><path class="i" d="M223.86,782.93h0c-14.63-4.28-23.03-19.59-18.74-34.2l52.4-178.76c4.28-14.61,19.62-22.99,34.25-18.71h0c14.63,4.28,23.03,19.59,18.74,34.2l-52.4,178.76c-4.28,14.61-19.62,22.99-34.25,18.71Z"/><ellipse class="i" cx="733.53" cy="740.28" rx="29.05" ry="42.09" transform="translate(-149.19 186.31) rotate(-13.15)"/><ellipse class="i" cx="705.08" cy="731.16" rx="28.31" ry="12.4" transform="translate(-288.52 942.07) rotate(-58.02)"/><path class="i" d="M676.53,540.97h0c14.63-4.28,29.97,4.1,34.25,18.71l52.4,178.76c4.28,14.61-4.11,29.92-18.74,34.19h0c-14.63,4.28-29.97-4.1-34.25-18.71l-52.4-178.76c-4.28-14.61,4.11-29.92,18.74-34.19Z"/></g></g></g></g><g><path id="h" class="q" d="M271.67,783.44l-16.57-9.5c.16-.08,.33-.15,.49-.23,11.96-6.1,13.69-25.73,3.86-43.85-9.83-18.12-27.49-27.87-39.45-21.77-11.96,6.1-13.69,25.73-3.86,43.85,8.72,16.07,23.59,25.55,35.19,23.23l-.46,19.45-.54,22.79,20.79-11.18,20.79-11.18-20.25-11.61Z"/><path class="k" d="M244.89,731.05l-30.71-5c-.84-.14-1.41-.93-1.27-1.77h0c.14-.84,.93-1.41,1.77-1.27l30.71,5c.84,.14,1.41,.93,1.27,1.77h0c-.14,.84-.93,1.41-1.77,1.27Z"/><path class="k" d="M215.3,724.79h30.71c.68,0,1.23,.55,1.23,1.23h0c0,.68-.55,1.23-1.23,1.23h-30.71c-.68,0-1.23-.55-1.23-1.23h0c0-.68,.55-1.23,1.23-1.23Z" transform="translate(-530.6 754.1) rotate(-74.49)"/></g><polyline class="p" points="601.86 725.07 601.86 833.29 367.15 833.29 367.15 725.07"/><polyline class="p" points="476.55 770.74 476.55 1296.95 367.15 1296.95 367.15 770.74"/><polyline class="p" points="601.86 770.74 601.86 1291.98 490.47 1291.98 490.47 770.74"/><path class="o" d="M355.11,1280.56c-4.97,12.11,4.08,25.42,17.11,25.42h90.11c13.13,0,22.08-13.3,17.11-25.42-10.04-24.42-34.11-41.7-62.26-41.7s-52.02,17.18-62.06,41.7h0Z"/><path class="o" d="M483.71,1280.56c-4.97,12.11,4.08,25.42,17.11,25.42h90.11c13.13,0,22.08-13.3,17.11-25.42-10.04-24.42-34.11-41.7-62.26-41.7s-52.11,17.18-62.06,41.7h0Z"/></svg>